<svg width="25" height="32" viewBox="0 0 25 32" fill="none" xmlns="http://www.w3.org/2000/svg">
  <path fill-rule="evenodd" clip-rule="evenodd" d="M22.5 1.5H2.5C1.94772 1.5 1.5 1.94772 1.5 2.5V29.5C1.5 30.0523 1.94772 30.5 2.5 30.5H22.5C23.0523 30.5 23.5 30.0523 23.5 29.5V2.5C23.5 1.94772 23.0523 1.5 22.5 1.5ZM2.5 0C1.11929 0 0 1.11929 0 2.5V29.5C0 30.8807 1.11929 32 2.5 32H22.5C23.8807 32 25 30.8807 25 29.5V2.5C25 1.11929 23.8807 0 22.5 0H2.5ZM20 20.0859H5V18.5859H20V20.0859ZM5 10.75H20V9.25H5V10.75ZM20 7.75H5V6.25H20V7.75ZM5 23.0859H20V21.5859H5V23.0859ZM20 13.75H5V12.25H20V13.75ZM5 26.0859H15.25V24.5859H5V26.0859Z" fill="#0D1420"/>
</svg>
