<svg width="121" height="28" viewBox="0 0 121 28" fill="none" xmlns="http://www.w3.org/2000/svg" class="item-logo">
  <path d="M115.163 26.577H120.396V16.06C120.396 11.1232 117.692 8.17737 113.163 8.17737C110.879 8.17737 108.946 9.00017 107.862 10.4342L107.796 10.5222L107.729 10.4358C106.593 8.97986 104.696 8.17737 102.392 8.17737C97.8836 8.17737 95.1934 11.1249 95.1934 16.06V26.577H100.427V15.8552C100.427 14.1148 101.337 13.0346 102.802 13.0346C104.266 13.0346 105.177 14.0894 105.177 15.8552V26.577H110.41V15.8552C110.41 14.0894 111.299 13.0346 112.786 13.0346C114.272 13.0346 115.161 14.1148 115.161 15.8552V26.577H115.163Z" fill="none" class="color-base"></path>
  <path d="M53.8485 0C52.2706 0 50.9873 1.2833 50.9873 2.86119C50.9873 4.43908 52.2706 5.72407 53.8485 5.72407C55.4264 5.72407 56.7097 4.44077 56.7097 2.86119C56.7097 1.28161 55.4264 0 53.8485 0Z" fill="none" class="color-base"></path>
  <path d="M51.2686 26.5768H56.5017V8.62244H51.2686V26.5768Z" fill="none" class="color-base"></path>
  <path d="M89.2156 10.854C87.6512 9.12715 85.3386 8.17737 82.7025 8.17737C77.3221 8.17737 73.418 12.1678 73.418 17.6684C73.418 20.3772 74.3271 22.7068 76.0472 24.4049C77.7809 26.1165 80.1782 27.0223 82.9768 27.0223C85.7754 27.0223 88.342 26.0488 90.2907 24.1306L86.7844 21.3338C85.7043 22.1803 84.4616 22.6103 83.0801 22.6103C80.6404 22.6103 78.8712 21.2948 78.3464 19.0905L78.321 18.9856H91.381C91.7027 15.5843 90.956 12.7739 89.2173 10.854H89.2156ZM78.3785 15.4268L78.4158 15.3151C79.027 13.4799 80.6167 12.3845 82.6687 12.3845C84.7206 12.3845 86.1326 13.4562 86.5474 15.3236L86.5711 15.4268H78.3802H78.3785Z" fill="none" class="color-base"></path>
  <path d="M70.1847 22.4207C70.0408 22.4596 69.8309 22.5019 69.5583 22.551C69.284 22.5984 68.9844 22.6238 68.6576 22.6238C68.2259 22.6238 67.8314 22.5561 67.4759 22.4223C67.1203 22.2886 66.8342 22.0363 66.6192 21.6656C66.4025 21.2965 66.2958 20.7598 66.2958 20.0589V12.8856H70.3218V8.62261H66.2958V1.91321H61.0813V20.9223C61.0711 22.3055 61.3725 23.4585 61.982 24.3795C62.5915 25.3022 63.4194 25.9811 64.4674 26.4179C65.5136 26.8546 66.6903 27.0544 67.9973 27.0155C68.7372 26.9969 69.3636 26.9291 69.8783 26.814C70.3913 26.6989 70.7874 26.5939 71.0668 26.4974L70.1881 22.4207H70.1847Z" fill="none" class="color-base"></path>
  <path d="M7.93384 26.5793L12.3831 18.8558L9.31704 13.5567L16.8544 0.534058H7.93384L0.396484 13.5567L7.93384 26.5793H16.8544L16.851 26.5743L16.8476 26.5793H7.93384Z" fill="#8812E2"></path>
  <path d="M12.3828 18.8558L16.8507 26.5743L27.405 8.2525L22.9371 0.534058L12.3828 18.8558Z" fill="#0AFFD2"></path>
  <path d="M7.93359 26.5795H16.8474L16.8508 26.5744L12.3829 18.856L7.93359 26.5795Z" fill="none" class="color-secondary"></path>
  <path d="M39.3954 13.5567L31.8581 0.534058H31.8513L27.4054 8.2525L30.4749 13.5567L22.9375 26.5793H31.8581L39.3954 13.5567Z" fill="#8812E2"></path>
  <path d="M22.9375 0.534058L27.4054 8.2525L31.8513 0.534058H22.9375Z" fill="none" class="color-secondary"></path>
</svg>
